<?xml version="1.0" encoding="utf-8"?>
<!-- Generator: Adobe Illustrator 18.1.1, SVG Export Plug-In . SVG Version: 6.00 Build 0)  -->
<!DOCTYPE svg PUBLIC "-//W3C//DTD SVG 1.1//EN" "http://www.w3.org/Graphics/SVG/1.1/DTD/svg11.dtd">
<svg version="1.1" xmlns="http://www.w3.org/2000/svg" xmlns:xlink="http://www.w3.org/1999/xlink" x="0px" y="0px"
	 viewBox="0 0 326.6 62.4" enable-background="new 0 0 326.6 62.4" xml:space="preserve">
<g id="Layer_1" display="none">
</g>
<g id="Layer_2">
	<g>
		<g>
			<g>
				<g>
					<path fill="#FFFFFF" d="M-0.3,48.5v-2.8h3.6V23.5h-3.6v-2.8h11.8c2.6,0,4.2,0.2,5.9,0.7c5.4,1.7,8.6,6.7,8.6,13.2
						c0,6.7-3.3,11.5-8.9,13.2c-1.8,0.6-3.8,0.7-5.5,0.7H-0.3z M11.3,45.6c2,0,3.4-0.2,4.7-0.6c4.2-1.4,6.6-5.1,6.6-10.3
						c0-5.2-2.3-9-6.4-10.4c-1.5-0.5-2.9-0.6-4.9-0.6H6.5v22H11.3z"/>
				</g>
			</g>
			<g>
				<g>
					<path fill="#FFFFFF" d="M29.4,48.5v-2.7h3.3V31.2h-3.5v-2.7h6.7v17.3h3.3v2.7H29.4z M32.6,24.5v-3.9h3.5v3.9H32.6z"/>
				</g>
			</g>
			<g>
				<g>
					<path fill="#FFFFFF" d="M49.9,56.6c-2.2,0-4.5-0.6-6.5-1.6l-0.2-0.1l1.3-2.7l0.3,0.1c0,0,2.4,1.3,5.1,1.3
						c4.1,0,6.5-2.1,6.5-5.9v-1.9c0-0.1,0-0.2,0-0.4c-1.3,1.8-3.3,2.8-5.9,2.8c-5.3,0-8.9-4.2-8.9-10.3c0-6.1,3.4-10.1,8.7-10.1
						c2.8,0,5,1,6.3,2.7c0.1-1.5,0.8-2.2,2.5-2.2h3.8v2.7h-2.7c-0.4,0-0.6,0.2-0.6,0.5v16C59.5,54.2,54.6,56.6,49.9,56.6z
						 M50.5,30.9c-3.6,0-5.7,2.6-5.7,7.1c0,4.5,2.4,7.4,6.1,7.4c2.5,0,5.5-1.3,5.5-7.3C56.4,33.2,54.5,30.9,50.5,30.9z"/>
				</g>
			</g>
			<g>
				<g>
					<path fill="#FFFFFF" d="M65.1,48.5v-2.7h3.3V31.2h-3.5v-2.7h6.7v17.3h3.3v2.7H65.1z M68.2,24.5v-3.9h3.5v3.9H68.2z"/>
				</g>
			</g>
			<g>
				<g>
					<path fill="#FFFFFF" d="M86.5,48.6c-2.6,0-7.1-1-7.1-7.5v-9.9h-3.5v-2.7h3.5v-5.4h3.2v5.4h4.9v2.7h-4.9v9.7
						c0,4.3,2.6,4.9,4.1,4.9c0.5,0,0.8-0.1,0.8-0.1l0.3-0.1l0,2.9l-0.2,0C87.7,48.5,87.2,48.6,86.5,48.6z"/>
				</g>
			</g>
			<g>
				<g>
					<path fill="#FFFFFF" d="M96.6,48.9c-3.3,0-6.8-1.9-6.8-6.1c0-4.6,4-6.9,12-6.9h1v-0.5c0-3.1-1.4-4.6-4.4-4.6
						c-3.2,0-5.4,1.8-5.5,1.8l-0.2,0.2l-1.5-2.5l0.2-0.2c0.1-0.1,2.8-2.3,7.2-2.3c4.9,0,7.4,2.6,7.4,7.6v9.6c0,0.4,0.2,0.6,0.6,0.6
						h2.4v2.7h-3.5c-1.8,0-2.6-0.8-2.6-2.4c0,0,0-0.6,0-0.7C102.1,46.8,100.1,48.9,96.6,48.9z M101.6,38.5c-3.9,0-8.5,0.7-8.5,4
						c0,1.7,1.2,3.6,3.9,3.6c3.6,0,5.8-3.6,5.8-7v-0.6H101.6z"/>
				</g>
			</g>
			<g>
				<g>
					<path fill="#FFFFFF" d="M117.5,48.6c-3.1,0-4.7-1.8-4.7-5.3V23.4h-3.4v-2.7h6.6v22.4c0,1.8,0.6,2.6,1.9,2.6c0.7,0,1-0.1,1-0.1
						l0.3-0.1l0,2.8l-0.2,0C119,48.5,118.2,48.6,117.5,48.6z"/>
				</g>
			</g>
			<g>
				<g>
					<path fill="#FFFFFF" d="M223.3,48.9c-8.3,0-14.4-6-14.4-14.4c0-8.4,5.9-14.3,14.4-14.3c5.1,0,10.5,2.1,10.5,5.6v3.3h-3.2v-2.3
						c0-2.2-3.7-3.5-7.3-3.5c-6.6,0-11.1,4.5-11.1,11.3c0,6.7,4.5,11.4,11,11.4c3.1,0,8-1,8-3.7v-4h-5.7v-2.8h8.8v7.4
						C234.5,47.3,227.6,48.9,223.3,48.9z"/>
				</g>
			</g>
			<g>
				<g>
					<path fill="#FFFFFF" d="M244.7,48.9c-3.3,0-6.8-1.9-6.8-6.1c0-4.6,4-6.9,12-6.9h1v-0.5c0-3.1-1.4-4.6-4.4-4.6
						c-3.2,0-5.4,1.8-5.5,1.8l-0.2,0.2l-1.5-2.5l0.2-0.2c0.1-0.1,2.8-2.3,7.2-2.3c4.9,0,7.4,2.6,7.4,7.6v9.6c0,0.4,0.2,0.6,0.6,0.6
						h2.4v2.7h-3.5c-1.8,0-2.6-0.8-2.6-2.4c0,0,0-0.6,0-0.7C250.2,46.8,248.3,48.9,244.7,48.9z M249.7,38.5c-0.8,0-3.1,0-5.1,0.6
						c-2.2,0.7-3.4,1.8-3.4,3.5c0,1.7,1.2,3.6,3.9,3.6c3.6,0,5.8-3.6,5.8-7v-0.6H249.7z"/>
				</g>
			</g>
			<g>
				<g>
					<path fill="#FFFFFF" d="M267,48.9c-3.7,0-7.6-1.7-7.6-4.9v-2.2h3v1.7c0,1.6,2.5,2.5,4.8,2.5c2.1,0,4.3-0.9,4.3-2.8
						c0-1.9-2-2.7-4.6-3.6l-0.5-0.2c-2.5-0.9-6.2-2.3-6.2-6.1c0-3.8,3.6-5.5,7-5.5c2.6,0,6.7,1.1,6.7,4.1v2.5h-3v-1.7
						c0-1.3-1.9-2-3.7-2c-1.8,0-3.8,0.7-3.8,2.5c0,2,2.3,2.8,4.7,3.7c2.9,1,6.5,2.3,6.5,6.1C274.6,46.6,271.6,48.9,267,48.9z"/>
				</g>
			</g>
			<g>
				<g>
					<path fill="#FFFFFF" d="M287.1,48.6c-2.6,0-7.1-1-7.1-7.5v-9.9h-3.5v-2.7h3.5v-5.4h3.2v5.4h4.9v2.7h-4.9v9.7
						c0,4.3,2.6,4.9,4.1,4.9c0.5,0,0.8-0.1,0.8-0.1l0.3-0.1v2.9l-0.2,0C288.2,48.5,287.7,48.6,287.1,48.6z"/>
				</g>
			</g>
			<g>
				<g>
					<path fill="#FFFFFF" d="M290.9,48.5v-2.7h3v-14c0-0.4-0.2-0.6-0.6-0.6h-2.9v-2.7h4c1.8,0,2.6,0.8,2.6,2.5c0,0,0,1.3,0,1.3
						c1.3-2.5,3.4-4,5.9-4c0.6,0,1.1,0.1,1.1,0.1l0.2,0v3.2l-0.3,0c0,0-0.5-0.1-1-0.1c-4.3,0-5.9,5.1-5.9,8.5v5.8h3v2.7H290.9z"/>
				</g>
			</g>
			<g>
				<g>
					<path fill="#FFFFFF" d="M316.3,48.9c-5.9,0-10.5-4.6-10.5-10.6c0-5.8,4.6-10.4,10.5-10.4c5.9,0,10.6,4.6,10.6,10.4
						C326.9,44.3,322.2,48.9,316.3,48.9z M316.3,30.9c-4.1,0-7.3,3.3-7.3,7.5c0,4.3,3.2,7.6,7.3,7.6c4.1,0,7.3-3.4,7.3-7.6
						C323.6,34.2,320.4,30.9,316.3,30.9z"/>
				</g>
			</g>
		</g>
		<g>
			<path fill="#FFFFFF" d="M149,17.5c-2.5,0-4.5-2-4.5-4.5s2-4.5,4.5-4.5s4.5,2,4.5,4.5S151.4,17.5,149,17.5z M149,11
				c-1.1,0-2,0.9-2,2s0.9,2,2,2s2-0.9,2-2S150.1,11,149,11z"/>
		</g>
		<g>
			<path fill="#FFFFFF" d="M144.6,44.7c-2.5,0-4.5-2-4.5-4.5s2-4.5,4.5-4.5s4.5,2,4.5,4.5S147.1,44.7,144.6,44.7z M144.6,38.2
				c-1.1,0-2,0.9-2,2s0.9,2,2,2s2-0.9,2-2S145.7,38.2,144.6,38.2z"/>
		</g>
		<g>
			<path fill="#FFFFFF" d="M186,4.3c0,0.1,0,0.2,0,0.2c0,1-0.5,1.9-1.2,2.5c4.2,2.4,7.4,7.1,7.4,16c0,5-3.1,10.7-7.8,14.1
				c-0.7,0.5-0.8,1.4-0.3,2.1c0.3,0.4,0.8,0.6,1.2,0.6c0.3,0,0.6-0.1,0.9-0.3c5.4-3.9,9-10.6,9-16.5C195.1,18.2,194,8.7,186,4.3z"/>
			<path fill="#FFFFFF" d="M182.8,9c-2.5,0-4.5-2-4.5-4.5s2-4.5,4.5-4.5s4.5,2,4.5,4.5S185.2,9,182.8,9z M182.8,2.5
				c-1.1,0-2,0.9-2,2s0.9,2,2,2s2-0.9,2-2S183.9,2.5,182.8,2.5z"/>
		</g>
		<g>
			<path fill="#FFFFFF" d="M144.1,54.6c0.4,0,0.9,0.1,1.2,0.3v-5.4c0-0.7-0.6-1.2-1.2-1.2s-1.2,0.6-1.2,1.2v5.4
				C143.2,54.7,143.7,54.6,144.1,54.6z"/>
			<path fill="#FFFFFF" d="M144.1,62.4c-2.5,0-4.5-2-4.5-4.5s2-4.5,4.5-4.5s4.5,2,4.5,4.5S146.6,62.4,144.1,62.4z M144.1,55.9
				c-1.1,0-2,0.9-2,2s0.9,2,2,2s2-0.9,2-2S145.2,55.9,144.1,55.9z"/>
		</g>
		<g>
			<path fill="#FFFFFF" d="M182,49.4c-0.5,0-1-0.1-1.5-0.4v7.3h-26.7c-0.8,0-1.5,0.7-1.5,1.5s0.7,1.5,1.5,1.5h29.7V49.1
				C183,49.3,182.5,49.4,182,49.4z"/>
			<path fill="#FFFFFF" d="M182,50.7c-2.5,0-4.5-2-4.5-4.5s2-4.5,4.5-4.5s4.5,2,4.5,4.5S184.4,50.7,182,50.7z M182,44.2
				c-1.1,0-2,0.9-2,2s0.9,2,2,2s2-0.9,2-2S183.1,44.2,182,44.2z"/>
		</g>
	</g>
	<path fill="#FFFFFF" d="M180.4,2.3c-1.4-0.3-3-0.4-4.7-0.4c-6.8,0-9.8,2.4-12.8,4.8c-2.7,2.2-5.3,4.2-11.1,4.7
		c0.3,0.5,0.4,1,0.4,1.6c0,0.5-0.1,1-0.3,1.4c6.8-0.6,10-3.1,12.8-5.4c2.8-2.2,5.2-4.1,10.9-4.1c1.3,0,2.7,0.1,4,0.3
		c-0.1-0.2-0.1-0.5-0.1-0.7C179.5,3.7,179.8,2.9,180.4,2.3z"/>
	<path fill="#FFFFFF" d="M157,5c-5.6-2.8-11.8-2.7-16.7,0.4c-5.4,3.3-8.5,9.6-8.5,17.1c0,11.3,5.9,16.1,9.6,18c0-0.1,0-0.2,0-0.3
		c0-1,0.4-1.8,1.1-2.4c-3-1.6-7.7-5.7-7.7-15.2c0-6.5,2.6-11.8,7.1-14.6c4.1-2.5,9.1-2.6,13.8-0.2c0.7,0.4,1.6,0.1,2-0.7
		S157.7,5.4,157,5z"/>
</g>
</svg>
